<?xml version="1.0" standalone="no"?>
<!DOCTYPE svg PUBLIC "-//W3C//DTD SVG 20010904//EN"
 "http://www.w3.org/TR/2001/REC-SVG-20010904/DTD/svg10.dtd">
<svg version="1.0" xmlns="http://www.w3.org/2000/svg"
 width="594.000000pt" height="594.000000pt" viewBox="0 0 594.000000 594.000000"
 preserveAspectRatio="xMidYMid meet">
<metadata>
Created by potrace 1.11, written by Peter Selinger 2001-2013
</metadata>
<g transform="translate(0.000000,594.000000) scale(0.100000,-0.100000)"
fill="#000000" stroke="none">
<path d="M0 4305 l0 -335 1038 0 1037 0 0 -335 0 -335 -1037 0 -1038 0 0 -335
0 -335 1038 0 1037 0 0 -335 0 -335 -1037 0 -1038 0 0 -335 0 -335 1439 0
c1142 0 1440 3 1443 13 2 6 4 609 3 1340 l0 1327 1186 0 1187 0 0 -335 0 -335
-1049 -2 -1048 -3 32 -35 c17 -19 61 -69 97 -110 36 -41 70 -80 75 -86 6 -6
39 -44 75 -84 36 -40 84 -94 106 -119 23 -25 115 -129 204 -231 158 -179 284
-322 305 -344 6 -6 75 -85 155 -176 79 -91 147 -167 150 -170 3 -3 54 -61 114
-130 60 -69 114 -129 120 -135 6 -5 40 -44 76 -85 36 -41 70 -80 75 -86 6 -6
39 -44 75 -84 36 -41 77 -87 91 -102 l26 -28 477 0 c262 0 476 3 476 6 0 3
-19 29 -42 57 -24 29 -48 59 -55 67 -7 8 -62 76 -123 150 -61 74 -117 142
-123 150 -54 68 -93 116 -97 120 -3 3 -24 28 -45 55 -22 28 -42 52 -45 55 -3
3 -55 66 -115 140 -61 74 -117 144 -126 155 -10 11 -39 47 -66 80 -27 33 -93
113 -146 178 -53 64 -97 119 -97 122 0 3 254 5 565 5 l565 0 0 1005 0 1005
-2970 0 -2970 0 0 -335z"/>
</g>
</svg>
