<?xml version="1.0" standalone="no"?>
<!DOCTYPE svg PUBLIC "-//W3C//DTD SVG 20010904//EN"
 "http://www.w3.org/TR/2001/REC-SVG-20010904/DTD/svg10.dtd">
<svg version="1.0" xmlns="http://www.w3.org/2000/svg"
 width="619.000000pt" height="619.000000pt" viewBox="0 0 619.000000 619.000000"
 preserveAspectRatio="xMidYMid meet">
<metadata>
Created by potrace 1.11, written by Peter Selinger 2001-2013
</metadata>
<g transform="translate(0.000000,619.000000) scale(0.100000,-0.100000)"
fill="#000000" stroke="none">
<path d="M0 3685 c0 -131 2 -145 18 -146 9 0 169 -1 354 -1 186 0 338 -3 339
-7 7 -42 2 -281 -6 -282 -5 -1 -165 -2 -355 -3 l-345 -1 -3 -147 -3 -147 356
2 c195 1 355 0 356 -3 1 -7 1 -250 0 -272 -1 -17 -25 -18 -356 -18 l-355 0 0
-148 0 -147 658 1 c361 1 662 2 667 3 7 1 11 119 10 364 0 199 1 366 3 370 2
4 11 -1 20 -11 10 -11 69 -75 133 -143 64 -68 132 -140 150 -160 63 -67 274
-292 336 -358 l62 -66 566 0 565 0 1 25 c4 76 4 307 1 318 -3 9 -68 12 -278
12 l-274 0 0 60 0 60 193 -1 c105 -1 230 0 278 0 l85 1 -2 53 c-1 28 -2 55 -3
58 -1 3 -144 6 -318 7 -175 0 -325 1 -334 1 -14 1 -15 48 -14 436 l0 435
-1252 0 -1253 0 0 -145z m2187 -294 l-2 -146 -424 0 -425 0 -1 125 c0 69 1
135 3 146 l4 22 423 0 424 -1 -2 -146z m261 -441 l52 0 0 -175 0 -175 275 0
c151 0 275 -3 276 -7 0 -5 2 -32 3 -60 l2 -53 -335 0 -336 0 -201 233 -201
232 81 5 c44 3 137 4 206 3 69 -1 149 -2 178 -3z"/>
<path d="M3252 2898 l0 -58 61 -1 c34 0 97 -1 140 -1 l77 0 0 -239 0 -239 60
0 60 0 0 241 0 240 123 -1 c67 -1 130 -1 140 -1 15 1 17 10 16 59 l-2 58 -337
1 -337 0 -1 -59z"/>
<path d="M4010 2935 c-1 -40 -1 -531 -1 -552 l1 -23 335 0 c312 0 335 1 336
18 0 22 0 495 0 543 l-1 36 -335 -1 c-330 0 -335 -1 -335 -21z m551 -104 c0
-3 1 -84 2 -179 l2 -172 -220 2 -220 3 0 160 c0 88 2 168 3 177 4 15 26 16
218 16 118 -1 214 -4 215 -7z"/>
<path d="M4761 2658 l0 -298 59 0 60 0 0 239 0 240 218 -2 217 -2 1 -57 2 -58
-186 0 -185 0 180 -180 180 -180 84 0 84 0 -120 120 -120 120 101 0 100 0 -2
173 c-1 94 -2 175 -3 178 0 3 -151 6 -335 6 l-334 0 -1 -299z"/>
<path d="M5514 2898 l0 -58 30 -1 c40 -1 629 -1 639 0 4 1 7 27 7 59 l0 58
-338 0 -337 1 -1 -59z"/>
<path d="M5514 2660 l0 -60 338 0 338 0 0 59 0 59 -338 1 -338 1 0 -60z"/>
<path d="M5518 2473 c-2 -5 -4 -30 -3 -58 l0 -50 338 -3 337 -2 0 60 0 60
-334 0 c-184 0 -336 -3 -338 -7z"/>
</g>
</svg>
