<?xml version="1.0" standalone="no"?>
<!DOCTYPE svg PUBLIC "-//W3C//DTD SVG 20010904//EN"
 "http://www.w3.org/TR/2001/REC-SVG-20010904/DTD/svg10.dtd">
<svg version="1.0" xmlns="http://www.w3.org/2000/svg"
 width="2061.000000pt" height="2061.000000pt" viewBox="0 0 2061.000000 2061.000000"
 preserveAspectRatio="xMidYMid meet">
<metadata>
Created by potrace 1.11, written by Peter Selinger 2001-2013
</metadata>
<g transform="translate(0.000000,2061.000000) scale(0.100000,-0.100000)"
fill="#000000" stroke="none">
<path d="M14185 20604 c-963 -55 -1778 -146 -2820 -315 -365 -59 -1305 -226
-1312 -233 -4 -4 58 -480 63 -485 2 -3 80 5 172 17 639 84 1000 76 1218 -28
35 -17 88 -53 118 -80 139 -127 190 -291 202 -650 7 -194 -11 -2302 -26 -3090
-47 -2468 -99 -4145 -225 -7308 -14 -343 -22 -628 -19 -633 3 -5 35 -9 72 -9
66 0 1248 153 1258 163 9 8 182 6080 249 8717 8 327 22 854 30 1170 8 316 22
834 30 1150 20 795 25 910 39 910 6 0 85 9 176 20 865 102 1477 69 1994 -106
809 -275 1280 -894 1400 -1839 103 -806 -22 -1649 -325 -2188 -472 -842 -1396
-1301 -2799 -1390 l-185 -12 -6 -37 c-5 -34 12 -70 206 -430 1231 -2287 2223
-3897 3004 -4878 216 -270 353 -424 600 -671 248 -247 323 -313 461 -405 284
-190 567 -266 899 -243 428 29 1064 229 1771 554 69 32 129 61 134 66 9 8
-130 449 -142 449 -5 0 -82 -24 -173 -54 -292 -97 -530 -130 -769 -107 -532
49 -927 324 -1611 1121 -717 835 -1535 2092 -2688 4133 -62 110 -111 200 -109
201 2 2 82 26 178 55 517 155 1018 388 1415 659 637 434 1106 1023 1364 1714
214 572 282 1245 191 1878 -115 795 -547 1410 -1251 1779 -422 221 -900 345
-1609 417 -112 12 -287 17 -635 19 -264 1 -507 1 -540 -1z"/>
<path d="M40 7405 l0 -7405 5460 0 5460 0 0 7405 0 7405 -5460 0 -5460 0 0
-7405z m10440 0 l0 -6925 -4980 0 -4980 0 0 6925 0 6925 4980 0 4980 0 0
-6925z"/>
<path d="M5640 13514 c-719 -51 -1403 -257 -2000 -604 -478 -278 -798 -596
-980 -974 -149 -310 -172 -720 -56 -1006 38 -92 128 -221 204 -290 288 -265
759 -306 1198 -105 67 30 72 35 79 71 6 36 4 41 -27 69 -65 56 -161 170 -216
253 -230 352 -295 910 -147 1263 88 209 281 400 508 503 406 185 996 208 1461
55 526 -172 901 -544 1076 -1066 67 -201 83 -318 84 -603 0 -263 -12 -380 -60
-598 -115 -516 -457 -1074 -904 -1477 -466 -418 -989 -729 -1720 -1022 -102
-40 -194 -78 -206 -82 l-20 -9 26 -193 26 -194 40 2 c204 12 621 14 735 4 386
-34 743 -132 1070 -297 706 -354 1200 -1040 1328 -1844 81 -508 43 -1024 -109
-1465 -49 -142 -173 -403 -254 -533 -262 -423 -654 -760 -1098 -946 -311 -130
-585 -187 -908 -187 -425 -1 -787 96 -1135 303 -433 258 -780 654 -1005 1145
l-59 128 -63 -3 c-212 -11 -419 -123 -569 -309 -75 -95 -120 -176 -161 -293
-32 -93 -32 -99 -32 -255 1 -138 5 -173 27 -257 97 -366 376 -672 802 -878
665 -322 1581 -422 2430 -265 995 184 1846 615 2496 1264 337 337 583 692 758
1091 207 474 295 889 295 1395 0 431 -68 758 -228 1090 -140 291 -289 501
-515 725 -357 355 -765 588 -1301 743 -323 94 -552 127 -930 134 -192 4 -287
9 -292 17 -5 7 57 43 170 99 693 348 1193 694 1651 1142 387 379 628 718 805
1132 147 343 217 633 235 976 21 386 -39 720 -178 995 -160 316 -361 543 -660
744 -301 201 -710 344 -1130 393 -127 15 -439 26 -541 19z"/>
</g>
</svg>
