<?xml version="1.0" standalone="no"?>
<!DOCTYPE svg PUBLIC "-//W3C//DTD SVG 20010904//EN"
 "http://www.w3.org/TR/2001/REC-SVG-20010904/DTD/svg10.dtd">
<svg version="1.0" xmlns="http://www.w3.org/2000/svg"
 width="1000.000000pt" height="1000.000000pt" viewBox="0 0 1000.000000 1000.000000"
 preserveAspectRatio="xMidYMid meet">
<metadata>
Created by potrace 1.14, written by Peter Selinger 2001-2017
</metadata>
<g transform="translate(0.000000,1000.000000) scale(0.100000,-0.100000)"
fill="#000000" stroke="none">
<path d="M5037 9854 c-1 -1 -72 -4 -157 -8 -171 -7 -214 -11 -340 -27 -125
-15 -151 -19 -190 -25 -19 -4 -46 -8 -60 -10 -27 -3 -70 -11 -110 -20 -14 -3
-36 -7 -49 -10 -68 -14 -156 -35 -246 -58 -55 -15 -107 -28 -115 -30 -15 -4
-145 -45 -226 -71 -246 -81 -729 -302 -866 -397 -14 -10 -31 -18 -37 -18 -6 0
-11 -4 -11 -9 0 -5 -8 -11 -18 -13 -21 -6 -255 -159 -260 -170 -2 -4 -10 -8
-18 -8 -8 0 -14 -4 -14 -10 0 -5 -4 -10 -10 -10 -5 0 -18 -7 -27 -16 -10 -8
-67 -53 -128 -99 -60 -46 -123 -95 -140 -109 -16 -15 -55 -48 -85 -74 -116
-100 -276 -257 -380 -372 -36 -39 -80 -87 -97 -106 -18 -19 -33 -36 -33 -39 0
-5 -11 -18 -61 -75 -12 -14 -40 -50 -63 -80 -22 -30 -45 -60 -51 -66 -5 -6
-17 -22 -25 -34 -8 -12 -19 -28 -25 -34 -5 -6 -26 -34 -44 -61 -19 -28 -39
-53 -44 -56 -5 -3 -8 -9 -8 -13 2 -8 -52 -90 -61 -94 -5 -2 -8 -8 -8 -14 0 -6
-18 -37 -40 -69 -22 -33 -37 -59 -34 -59 4 0 0 -8 -8 -17 -16 -19 -50 -81 -46
-85 1 -2 -6 -12 -15 -23 -9 -11 -16 -23 -15 -26 2 -4 -6 -16 -16 -28 -11 -12
-15 -21 -10 -21 5 0 4 -4 -1 -8 -6 -4 -29 -43 -50 -87 -22 -44 -43 -83 -48
-86 -4 -3 -7 -10 -6 -15 2 -5 -14 -42 -34 -83 -20 -40 -34 -77 -31 -82 3 -5 0
-9 -5 -9 -6 0 -11 -9 -11 -20 0 -11 -4 -20 -10 -20 -5 0 -9 -3 -8 -7 0 -5 -2
-17 -7 -28 -46 -118 -84 -221 -90 -245 -1 -3 -5 -13 -9 -22 -4 -9 -9 -25 -11
-35 -2 -10 -4 -19 -5 -20 -2 -2 -3 -6 -4 -10 -1 -5 -4 -13 -8 -19 -4 -6 -10
-24 -13 -40 -8 -38 -13 -58 -15 -61 -2 -2 -3 -6 -4 -10 -2 -5 -8 -28 -15 -53
-7 -25 -14 -49 -15 -55 -1 -5 -4 -14 -7 -20 -4 -5 -5 -18 -4 -27 2 -10 0 -18
-5 -18 -4 0 -11 -21 -15 -47 -5 -27 -10 -52 -11 -58 -2 -5 -5 -21 -8 -35 -3
-14 -9 -36 -12 -50 -3 -14 -7 -36 -8 -50 -1 -14 -5 -31 -9 -37 -4 -6 -9 -30
-12 -54 -3 -24 -7 -57 -10 -74 -4 -16 -8 -43 -9 -60 -2 -16 -5 -30 -6 -30 -1
0 -8 -62 -12 -115 -2 -19 -7 -38 -13 -42 -6 -5 -5 -8 4 -8 9 0 10 -4 4 -12 -6
-7 -10 -34 -9 -61 1 -26 -1 -47 -4 -47 -5 0 -10 -102 -13 -245 -1 -33 -6 -63
-12 -67 -7 -5 -7 -8 0 -8 11 0 13 -139 2 -156 -3 -6 -3 -14 0 -18 4 -4 8 -37
9 -74 4 -128 27 -417 34 -417 1 0 3 -18 5 -40 2 -22 6 -58 10 -80 3 -22 7 -55
8 -72 1 -18 5 -33 9 -33 3 0 5 -8 3 -17 -1 -10 0 -22 3 -28 3 -5 7 -19 9 -30
5 -34 10 -60 12 -60 1 0 4 -16 6 -35 5 -37 12 -75 15 -75 1 0 4 -11 6 -25 3
-14 10 -43 16 -65 7 -22 13 -44 14 -50 1 -5 3 -12 4 -15 1 -3 3 -14 5 -25 5
-26 25 -93 36 -123 5 -13 9 -32 9 -42 0 -11 4 -20 8 -20 5 0 9 -6 10 -12 1
-24 29 -119 49 -168 4 -8 7 -18 8 -22 2 -5 4 -10 5 -13 1 -3 4 -9 5 -15 1 -5
4 -12 5 -15 1 -3 3 -8 4 -12 1 -5 7 -18 14 -29 6 -12 8 -24 5 -28 -3 -3 -1 -6
5 -6 7 0 11 -3 10 -7 -1 -5 4 -24 11 -43 8 -19 15 -41 17 -49 1 -8 9 -18 16
-22 7 -5 10 -9 5 -9 -4 0 2 -18 13 -40 11 -22 17 -40 13 -40 -5 0 -2 -4 5 -9
7 -4 14 -14 16 -22 1 -8 7 -24 14 -35 6 -12 8 -24 5 -28 -3 -3 -1 -6 5 -6 7 0
12 -6 12 -14 0 -8 7 -22 16 -30 8 -9 13 -16 10 -16 -8 0 75 -161 91 -178 7 -7
13 -18 13 -24 0 -5 25 -52 55 -103 30 -52 55 -99 55 -104 0 -6 5 -11 10 -11 6
0 15 -10 20 -23 13 -30 33 -60 45 -69 6 -4 6 -8 1 -8 -5 0 0 -8 10 -17 10 -10
28 -33 38 -52 11 -19 25 -42 32 -50 41 -51 84 -112 84 -120 0 -5 4 -11 8 -13
5 -1 36 -39 70 -83 34 -45 84 -105 111 -135 28 -30 50 -58 51 -61 0 -3 27 -34
60 -68 33 -34 60 -64 60 -66 0 -3 220 -221 261 -257 80 -71 171 -149 215 -184
21 -18 65 -53 96 -78 32 -25 62 -46 67 -46 5 0 11 -3 13 -7 8 -19 277 -203
296 -203 6 0 12 -3 12 -7 0 -5 15 -16 33 -27 78 -45 139 -80 205 -117 229
-130 562 -272 872 -371 111 -35 434 -118 515 -132 17 -2 82 -14 145 -24 104
-18 193 -30 275 -37 17 -2 55 -6 85 -9 153 -16 500 -22 675 -12 124 8 230 16
250 20 11 2 51 7 88 11 37 3 76 8 86 10 10 2 36 6 57 10 79 12 100 15 126 21
15 3 39 7 55 9 89 14 461 108 494 125 10 6 19 9 19 6 0 -6 211 68 335 117 281
111 537 241 809 410 34 21 210 140 236 159 293 219 432 339 639 552 126 130
130 135 201 217 30 35 59 69 65 76 5 6 20 24 32 40 12 16 35 43 50 59 14 16
25 29 23 29 -2 0 28 43 67 95 60 81 120 168 158 229 6 8 23 36 40 61 16 25 29
48 28 51 -1 4 7 15 17 24 11 10 20 24 20 32 0 8 9 23 20 35 10 12 17 25 14 30
-3 4 0 8 5 8 6 0 11 4 11 10 0 5 13 32 30 60 16 27 26 50 22 50 -4 0 -2 4 4 8
13 8 109 204 106 215 -1 4 2 7 8 7 6 0 9 3 8 8 -1 4 9 30 21 57 54 116 71 156
71 164 0 4 7 22 16 40 9 17 17 37 18 44 2 7 9 26 15 42 7 17 14 35 15 40 1 6
5 15 8 21 4 6 9 21 12 35 3 13 14 48 25 77 10 28 18 52 16 52 -2 0 3 16 11 35
8 19 11 35 8 35 -4 0 -1 7 6 15 7 8 9 15 5 15 -4 0 -3 6 3 13 6 6 11 15 11 20
1 4 1 8 2 10 0 1 3 13 6 27 7 39 11 55 13 55 1 0 3 7 5 15 3 14 29 126 41 175
3 11 7 34 9 50 2 17 5 32 6 35 1 3 1 8 0 13 0 4 3 7 7 7 5 0 8 10 7 23 -1 12
2 30 7 39 6 12 5 18 -3 18 -8 0 -8 4 -1 12 6 7 13 33 17 58 3 25 9 61 12 80 9
59 14 103 16 147 1 24 4 43 7 43 3 0 7 19 8 43 6 132 8 153 15 164 4 6 1 14
-5 16 -10 4 -9 6 1 6 11 1 11 4 1 16 -7 8 -9 15 -4 15 5 0 9 45 9 101 0 55 3
103 7 105 5 3 5 11 1 17 -11 18 -10 71 2 79 7 5 7 8 0 8 -7 0 -10 35 -10 90 0
50 -4 90 -9 90 -5 0 -3 6 3 13 6 8 8 17 5 20 -3 3 -8 34 -10 69 -5 85 -14 173
-29 283 -2 17 -5 47 -6 68 -2 20 -5 37 -8 37 -4 0 -7 19 -9 43 -2 40 -8 79
-12 85 -2 1 -3 10 -4 20 -1 9 -8 44 -16 77 -7 33 -13 68 -12 77 0 10 -3 20 -8
23 -5 3 -7 12 -3 20 3 8 1 15 -4 15 -5 0 -9 10 -8 23 1 12 -1 27 -6 32 -4 6
-10 24 -13 40 -2 17 -5 30 -6 30 -1 0 -7 26 -14 62 -1 7 -5 16 -9 19 -4 4 -7
17 -7 29 0 12 -3 25 -7 29 -4 3 -8 17 -10 29 -2 12 -6 29 -10 37 -3 8 -7 22
-9 30 -2 8 -7 23 -12 35 -14 29 -34 98 -32 109 1 5 -3 12 -9 15 -6 4 -13 18
-15 31 -2 14 -5 27 -6 30 -2 3 -2 8 -1 13 0 4 -4 7 -9 7 -5 0 -9 3 -8 8 0 4
-2 15 -5 25 -4 9 -10 25 -14 35 -3 9 -7 20 -8 25 -2 4 -4 10 -5 15 -1 4 -2 10
-1 15 0 4 -4 7 -9 7 -6 0 -10 7 -10 15 0 9 -7 27 -16 40 -9 14 -12 25 -8 25 5
0 3 4 -4 8 -7 5 -14 17 -16 28 -2 10 -19 51 -37 89 -18 39 -32 73 -31 78 1 4
-2 7 -7 7 -5 0 -12 12 -16 27 -3 15 -10 30 -13 33 -4 3 -25 39 -46 80 -53 102
-60 114 -69 121 -5 3 -8 9 -8 12 0 9 -27 57 -71 127 -21 33 -38 63 -38 67 0 5
-10 19 -23 33 -13 14 -24 28 -25 33 -4 15 -61 98 -97 141 -13 15 -33 47 -42
65 -3 7 -15 23 -25 35 -11 11 -51 62 -90 111 -39 50 -76 95 -82 100 -6 6 -23
26 -37 45 -15 19 -47 56 -73 82 -25 26 -46 50 -46 52 0 10 -359 356 -369 356
-3 0 -27 20 -52 43 -54 49 -63 56 -149 122 -36 27 -69 53 -75 57 -71 57 -102
78 -112 78 -7 0 -13 4 -13 9 0 9 -107 81 -121 81 -5 0 -9 4 -9 9 0 5 -15 16
-32 25 -18 10 -53 30 -78 46 -25 16 -52 33 -60 37 -8 4 -46 26 -85 48 -80 48
-363 190 -445 224 -222 93 -345 138 -530 195 -116 36 -367 100 -432 110 -19 3
-41 8 -49 10 -8 3 -30 7 -49 10 -19 3 -46 8 -60 10 -46 9 -105 17 -145 22 -22
2 -53 6 -70 9 -56 8 -120 16 -170 20 -124 9 -483 23 -488 19z"/>
</g>
</svg>
